<?xml version="1.0" encoding="UTF-8" standalone="no"?><svg xmlns="http://www.w3.org/2000/svg" xmlns:xlink="http://www.w3.org/1999/xlink" contentScriptType="application/ecmascript" contentStyleType="text/css" height="918px" preserveAspectRatio="none" style="width:1148px;height:918px;" version="1.1" viewBox="0 0 1148 918" width="1148px" zoomAndPan="magnify"><defs><filter height="300%" id="f17q0utd2c8acw" width="300%" x="-1" y="-1"><feGaussianBlur result="blurOut" stdDeviation="2.0"/><feColorMatrix in="blurOut" result="blurOut2" type="matrix" values="0 0 0 0 0 0 0 0 0 0 0 0 0 0 0 0 0 0 .4 0"/><feOffset dx="4.0" dy="4.0" in="blurOut2" result="blurOut3"/><feBlend in="SourceGraphic" in2="blurOut3" mode="normal"/></filter></defs><g><!--MD5=[3bc07fea50becab11b024fb07841640c]
class FileAttribute--><rect fill="#FEFECE" filter="url(#f17q0utd2c8acw)" height="99.2188" id="FileAttribute" style="stroke: #A80036; stroke-width: 1.5;" width="121" x="133" y="687"/><ellipse cx="148" cy="703" fill="#EB937F" rx="11" ry="11" style="stroke: #A80036; stroke-width: 1.0;"/><path d="M152.1094,709 L144.3906,709 L144.3906,696.6094 L152.1094,696.6094 L152.1094,698.7656 L146.8438,698.7656 L146.8438,701.4375 L151.6094,701.4375 L151.6094,703.5938 L146.8438,703.5938 L146.8438,706.8438 L152.1094,706.8438 L152.1094,709 Z "/><text fill="#000000" font-family="sans-serif" font-size="12" font-weight="bold" lengthAdjust="spacingAndGlyphs" textLength="89" x="162" y="707.1543">FileAttribute</text><line style="stroke: #A80036; stroke-width: 1.5;" x1="134" x2="253" y1="719" y2="719"/><text fill="#000000" font-family="sans-serif" font-size="11" lengthAdjust="spacingAndGlyphs" textLength="80" x="139" y="733.2104">IS_DIRECTORY</text><text fill="#000000" font-family="sans-serif" font-size="11" lengthAdjust="spacingAndGlyphs" textLength="27" x="139" y="746.0151">SIZE</text><text fill="#000000" font-family="sans-serif" font-size="11" lengthAdjust="spacingAndGlyphs" textLength="40" x="139" y="758.8198">OWNER</text><text fill="#000000" font-family="sans-serif" font-size="11" lengthAdjust="spacingAndGlyphs" textLength="53" x="139" y="771.6245">FILENAME</text><line style="stroke: #A80036; stroke-width: 1.5;" x1="134" x2="253" y1="778.2188" y2="778.2188"/><!--MD5=[63dd87716ef75a5caca5dce59428e94a]
class File--><rect fill="#FEFECE" filter="url(#f17q0utd2c8acw)" height="150.4375" id="File" style="stroke: #A80036; stroke-width: 1.5;" width="183" x="954" y="146"/><ellipse cx="1028.75" cy="162" fill="#ADD1B2" rx="11" ry="11" style="stroke: #A80036; stroke-width: 1.0;"/><path d="M1031.7188,167.6406 Q1031.1406,167.9375 1030.5,168.0781 Q1029.8594,168.2344 1029.1563,168.2344 Q1026.6563,168.2344 1025.3281,166.5938 Q1024.0156,164.9375 1024.0156,161.8125 Q1024.0156,158.6875 1025.3281,157.0313 Q1026.6563,155.375 1029.1563,155.375 Q1029.8594,155.375 1030.5,155.5313 Q1031.1563,155.6875 1031.7188,155.9844 L1031.7188,158.7031 Q1031.0938,158.125 1030.5,157.8594 Q1029.9063,157.5781 1029.2813,157.5781 Q1027.9375,157.5781 1027.25,158.6563 Q1026.5625,159.7188 1026.5625,161.8125 Q1026.5625,163.9063 1027.25,164.9844 Q1027.9375,166.0469 1029.2813,166.0469 Q1029.9063,166.0469 1030.5,165.7813 Q1031.0938,165.5 1031.7188,164.9219 L1031.7188,167.6406 Z "/><text fill="#000000" font-family="sans-serif" font-size="12" font-weight="bold" lengthAdjust="spacingAndGlyphs" textLength="25" x="1049.25" y="166.1543">File</text><line style="stroke: #A80036; stroke-width: 1.5;" x1="955" x2="1136" y1="178" y2="178"/><text fill="#000000" font-family="sans-serif" font-size="11" lengthAdjust="spacingAndGlyphs" textLength="122" x="960" y="192.2104">-isDirectory : boolean</text><text fill="#000000" font-family="sans-serif" font-size="11" lengthAdjust="spacingAndGlyphs" textLength="52" x="960" y="205.0151">-size : int</text><text fill="#000000" font-family="sans-serif" font-size="11" lengthAdjust="spacingAndGlyphs" textLength="85" x="960" y="217.8198">-owner : String</text><text fill="#000000" font-family="sans-serif" font-size="11" lengthAdjust="spacingAndGlyphs" textLength="100" x="960" y="230.6245">-fileName : String</text><text fill="#000000" font-family="sans-serif" font-size="11" lengthAdjust="spacingAndGlyphs" textLength="112" x="960" y="243.4292">-entries : Set&lt;File&gt;</text><line style="stroke: #A80036; stroke-width: 1.5;" x1="955" x2="1136" y1="250.0234" y2="250.0234"/><text fill="#000000" font-family="sans-serif" font-size="11" lengthAdjust="spacingAndGlyphs" textLength="171" x="960" y="264.2339">+extract(FileAttribute) : Object</text><text fill="#000000" font-family="sans-serif" font-size="11" lengthAdjust="spacingAndGlyphs" textLength="143" x="960" y="277.0386">+getEntries() : Set&lt;File&gt;</text><text fill="#000000" font-family="sans-serif" font-size="11" lengthAdjust="spacingAndGlyphs" textLength="133" x="960" y="289.8433">+getFileName() : String</text><!--MD5=[e6dc55dd324d6a8c189f3ada02b144fc]
class Predicate--><rect fill="#FEFECE" filter="url(#f17q0utd2c8acw)" height="60.8047" id="Predicate" style="stroke: #A80036; stroke-width: 1.5;" width="148" x="765.5" y="373"/><ellipse cx="803.45" cy="389" fill="#B4A7E5" rx="11" ry="11" style="stroke: #A80036; stroke-width: 1.0;"/><path d="M799.3719,384.7656 L799.3719,382.6094 L806.7625,382.6094 L806.7625,384.7656 L804.2938,384.7656 L804.2938,392.8438 L806.7625,392.8438 L806.7625,395 L799.3719,395 L799.3719,392.8438 L801.8406,392.8438 L801.8406,384.7656 L799.3719,384.7656 Z "/><text fill="#000000" font-family="sans-serif" font-size="12" font-style="italic" font-weight="bold" lengthAdjust="spacingAndGlyphs" textLength="65" x="822.55" y="393.1543">Predicate</text><line style="stroke: #A80036; stroke-width: 1.5;" x1="766.5" x2="912.5" y1="405" y2="405"/><line style="stroke: #A80036; stroke-width: 1.5;" x1="766.5" x2="912.5" y1="413" y2="413"/><text fill="#000000" font-family="sans-serif" font-size="11" lengthAdjust="spacingAndGlyphs" textLength="136" x="771.5" y="427.2104">+isMatch(File) : boolean</text><!--MD5=[f9917521fbb390f9819237d25c6ba22c]
class CompositePredicate--><rect fill="#FEFECE" filter="url(#f17q0utd2c8acw)" height="48" id="CompositePredicate" style="stroke: #A80036; stroke-width: 1.5;" width="168" x="640.5" y="536.5"/><ellipse cx="655.5" cy="552.5" fill="#B4A7E5" rx="11" ry="11" style="stroke: #A80036; stroke-width: 1.0;"/><path d="M651.4219,548.2656 L651.4219,546.1094 L658.8125,546.1094 L658.8125,548.2656 L656.3438,548.2656 L656.3438,556.3438 L658.8125,556.3438 L658.8125,558.5 L651.4219,558.5 L651.4219,556.3438 L653.8906,556.3438 L653.8906,548.2656 L651.4219,548.2656 Z "/><text fill="#000000" font-family="sans-serif" font-size="12" font-style="italic" font-weight="bold" lengthAdjust="spacingAndGlyphs" textLength="136" x="669.5" y="556.6543">CompositePredicate</text><line style="stroke: #A80036; stroke-width: 1.5;" x1="641.5" x2="807.5" y1="568.5" y2="568.5"/><line style="stroke: #A80036; stroke-width: 1.5;" x1="641.5" x2="807.5" y1="576.5" y2="576.5"/><!--MD5=[f54de20141304c264d1ed1c09fb364ab]
class SimplePredicate--><rect fill="#FEFECE" filter="url(#f17q0utd2c8acw)" height="99.2188" id="SimplePredicate" style="stroke: #A80036; stroke-width: 1.5;" width="222" x="251.5" y="511"/><ellipse cx="295.3" cy="527" fill="#ADD1B2" rx="11" ry="11" style="stroke: #A80036; stroke-width: 1.0;"/><path d="M298.2688,532.6406 Q297.6906,532.9375 297.05,533.0781 Q296.4094,533.2344 295.7063,533.2344 Q293.2063,533.2344 291.8781,531.5938 Q290.5656,529.9375 290.5656,526.8125 Q290.5656,523.6875 291.8781,522.0313 Q293.2063,520.375 295.7063,520.375 Q296.4094,520.375 297.05,520.5313 Q297.7063,520.6875 298.2688,520.9844 L298.2688,523.7031 Q297.6438,523.125 297.05,522.8594 Q296.4563,522.5781 295.8313,522.5781 Q294.4875,522.5781 293.8,523.6563 Q293.1125,524.7188 293.1125,526.8125 Q293.1125,528.9063 293.8,529.9844 Q294.4875,531.0469 295.8313,531.0469 Q296.4563,531.0469 297.05,530.7813 Q297.6438,530.5 298.2688,529.9219 L298.2688,532.6406 Z "/><text fill="#000000" font-family="sans-serif" font-size="12" font-weight="bold" lengthAdjust="spacingAndGlyphs" textLength="115" x="315.7" y="531.1543">SimplePredicate</text><rect fill="#FFFFFF" height="15.9688" style="stroke: #000000; stroke-width: 1.0; stroke-dasharray: 2.0,2.0;" width="9" x="467.5" y="508"/><text fill="#000000" font-family="sans-serif" font-size="12" font-style="italic" lengthAdjust="spacingAndGlyphs" textLength="7" x="468.5" y="520.1387">T</text><line style="stroke: #A80036; stroke-width: 1.5;" x1="252.5" x2="472.5" y1="543" y2="543"/><text fill="#000000" font-family="sans-serif" font-size="11" lengthAdjust="spacingAndGlyphs" textLength="164" x="257.5" y="557.2104">-attributeName : FileAttribute</text><text fill="#000000" font-family="sans-serif" font-size="11" lengthAdjust="spacingAndGlyphs" textLength="210" x="257.5" y="570.0151">-operator : ComparisonOperator&lt;T&gt;</text><text fill="#000000" font-family="sans-serif" font-size="11" lengthAdjust="spacingAndGlyphs" textLength="105" x="257.5" y="582.8198">-expectedValue : T</text><line style="stroke: #A80036; stroke-width: 1.5;" x1="252.5" x2="472.5" y1="589.4141" y2="589.4141"/><text fill="#000000" font-family="sans-serif" font-size="11" lengthAdjust="spacingAndGlyphs" textLength="136" x="257.5" y="603.6245">+isMatch(File) : boolean</text><!--MD5=[384bf623cc8e05d6904ae8d97e4ca88e]
class AndPredicate--><rect fill="#FEFECE" filter="url(#f17q0utd2c8acw)" height="73.6094" id="AndPredicate" style="stroke: #A80036; stroke-width: 1.5;" width="173" x="554" y="699.5"/><ellipse cx="589.7" cy="715.5" fill="#ADD1B2" rx="11" ry="11" style="stroke: #A80036; stroke-width: 1.0;"/><path d="M592.6688,721.1406 Q592.0906,721.4375 591.45,721.5781 Q590.8094,721.7344 590.1063,721.7344 Q587.6063,721.7344 586.2781,720.0938 Q584.9656,718.4375 584.9656,715.3125 Q584.9656,712.1875 586.2781,710.5313 Q587.6063,708.875 590.1063,708.875 Q590.8094,708.875 591.45,709.0313 Q592.1063,709.1875 592.6688,709.4844 L592.6688,712.2031 Q592.0438,711.625 591.45,711.3594 Q590.8563,711.0781 590.2313,711.0781 Q588.8875,711.0781 588.2,712.1563 Q587.5125,713.2188 587.5125,715.3125 Q587.5125,717.4063 588.2,718.4844 Q588.8875,719.5469 590.2313,719.5469 Q590.8563,719.5469 591.45,719.2813 Q592.0438,719 592.6688,718.4219 L592.6688,721.1406 Z "/><text fill="#000000" font-family="sans-serif" font-size="12" font-weight="bold" lengthAdjust="spacingAndGlyphs" textLength="95" x="608.3" y="719.6543">AndPredicate</text><line style="stroke: #A80036; stroke-width: 1.5;" x1="555" x2="726" y1="731.5" y2="731.5"/><text fill="#000000" font-family="sans-serif" font-size="11" lengthAdjust="spacingAndGlyphs" textLength="161" x="560" y="745.7104">-operands : List&lt;Predicate&gt;</text><line style="stroke: #A80036; stroke-width: 1.5;" x1="555" x2="726" y1="752.3047" y2="752.3047"/><text fill="#000000" font-family="sans-serif" font-size="11" lengthAdjust="spacingAndGlyphs" textLength="136" x="560" y="766.5151">+isMatch(File) : boolean</text><!--MD5=[109873db8d80d41f36520333bafa965d]
class OrPredicate--><rect fill="#FEFECE" filter="url(#f17q0utd2c8acw)" height="73.6094" id="OrPredicate" style="stroke: #A80036; stroke-width: 1.5;" width="173" x="786" y="699.5"/><ellipse cx="826.2" cy="715.5" fill="#ADD1B2" rx="11" ry="11" style="stroke: #A80036; stroke-width: 1.0;"/><path d="M829.1688,721.1406 Q828.5906,721.4375 827.95,721.5781 Q827.3094,721.7344 826.6063,721.7344 Q824.1063,721.7344 822.7781,720.0938 Q821.4656,718.4375 821.4656,715.3125 Q821.4656,712.1875 822.7781,710.5313 Q824.1063,708.875 826.6063,708.875 Q827.3094,708.875 827.95,709.0313 Q828.6063,709.1875 829.1688,709.4844 L829.1688,712.2031 Q828.5438,711.625 827.95,711.3594 Q827.3563,711.0781 826.7313,711.0781 Q825.3875,711.0781 824.7,712.1563 Q824.0125,713.2188 824.0125,715.3125 Q824.0125,717.4063 824.7,718.4844 Q825.3875,719.5469 826.7313,719.5469 Q827.3563,719.5469 827.95,719.2813 Q828.5438,719 829.1688,718.4219 L829.1688,721.1406 Z "/><text fill="#000000" font-family="sans-serif" font-size="12" font-weight="bold" lengthAdjust="spacingAndGlyphs" textLength="85" x="845.8" y="719.6543">OrPredicate</text><line style="stroke: #A80036; stroke-width: 1.5;" x1="787" x2="958" y1="731.5" y2="731.5"/><text fill="#000000" font-family="sans-serif" font-size="11" lengthAdjust="spacingAndGlyphs" textLength="161" x="792" y="745.7104">-operands : List&lt;Predicate&gt;</text><line style="stroke: #A80036; stroke-width: 1.5;" x1="787" x2="958" y1="752.3047" y2="752.3047"/><text fill="#000000" font-family="sans-serif" font-size="11" lengthAdjust="spacingAndGlyphs" textLength="136" x="792" y="766.5151">+isMatch(File) : boolean</text><!--MD5=[47d708ef1a2b0c2fb0cc29bcc0c54dc0]
class NotPredicate--><rect fill="#FEFECE" filter="url(#f17q0utd2c8acw)" height="73.6094" id="NotPredicate" style="stroke: #A80036; stroke-width: 1.5;" width="148" x="975.5" y="523.5"/><ellipse cx="1000.85" cy="539.5" fill="#ADD1B2" rx="11" ry="11" style="stroke: #A80036; stroke-width: 1.0;"/><path d="M1003.8188,545.1406 Q1003.2406,545.4375 1002.6,545.5781 Q1001.9594,545.7344 1001.2563,545.7344 Q998.7563,545.7344 997.4281,544.0938 Q996.1156,542.4375 996.1156,539.3125 Q996.1156,536.1875 997.4281,534.5313 Q998.7563,532.875 1001.2563,532.875 Q1001.9594,532.875 1002.6,533.0313 Q1003.2563,533.1875 1003.8188,533.4844 L1003.8188,536.2031 Q1003.1938,535.625 1002.6,535.3594 Q1002.0063,535.0781 1001.3813,535.0781 Q1000.0375,535.0781 999.35,536.1563 Q998.6625,537.2188 998.6625,539.3125 Q998.6625,541.4063 999.35,542.4844 Q1000.0375,543.5469 1001.3813,543.5469 Q1002.0063,543.5469 1002.6,543.2813 Q1003.1938,543 1003.8188,542.4219 L1003.8188,545.1406 Z "/><text fill="#000000" font-family="sans-serif" font-size="12" font-weight="bold" lengthAdjust="spacingAndGlyphs" textLength="93" x="1017.15" y="543.6543">NotPredicate</text><line style="stroke: #A80036; stroke-width: 1.5;" x1="976.5" x2="1122.5" y1="555.5" y2="555.5"/><text fill="#000000" font-family="sans-serif" font-size="11" lengthAdjust="spacingAndGlyphs" textLength="116" x="981.5" y="569.7104">-operand : Predicate</text><line style="stroke: #A80036; stroke-width: 1.5;" x1="976.5" x2="1122.5" y1="576.3047" y2="576.3047"/><text fill="#000000" font-family="sans-serif" font-size="11" lengthAdjust="spacingAndGlyphs" textLength="136" x="981.5" y="590.5151">+isMatch(File) : boolean</text><!--MD5=[8a43d323f43f01a7b11d5db3e0b04f32]
class ComparisonOperator--><rect fill="#FEFECE" filter="url(#f17q0utd2c8acw)" height="60.8047" id="ComparisonOperator" style="stroke: #A80036; stroke-width: 1.5;" width="182" x="289.5" y="706"/><ellipse cx="304.5" cy="722" fill="#B4A7E5" rx="11" ry="11" style="stroke: #A80036; stroke-width: 1.0;"/><path d="M300.4219,717.7656 L300.4219,715.6094 L307.8125,715.6094 L307.8125,717.7656 L305.3438,717.7656 L305.3438,725.8438 L307.8125,725.8438 L307.8125,728 L300.4219,728 L300.4219,725.8438 L302.8906,725.8438 L302.8906,717.7656 L300.4219,717.7656 Z "/><text fill="#000000" font-family="sans-serif" font-size="12" font-style="italic" font-weight="bold" lengthAdjust="spacingAndGlyphs" textLength="139" x="318.5" y="726.1543">ComparisonOperator</text><rect fill="#FFFFFF" height="15.9688" style="stroke: #000000; stroke-width: 1.0; stroke-dasharray: 2.0,2.0;" width="9" x="465.5" y="703"/><text fill="#000000" font-family="sans-serif" font-size="12" font-style="italic" lengthAdjust="spacingAndGlyphs" textLength="7" x="466.5" y="715.1387">T</text><line style="stroke: #A80036; stroke-width: 1.5;" x1="290.5" x2="470.5" y1="738" y2="738"/><line style="stroke: #A80036; stroke-width: 1.5;" x1="290.5" x2="470.5" y1="746" y2="746"/><text fill="#000000" font-family="sans-serif" font-size="11" lengthAdjust="spacingAndGlyphs" textLength="139" x="295.5" y="760.2104">+isMatch(T, T) : boolean</text><!--MD5=[ecfb36f93e3846f50b2e656bcf357121]
class EqualsOperator--><rect fill="#FEFECE" filter="url(#f17q0utd2c8acw)" height="60.8047" id="EqualsOperator" style="stroke: #A80036; stroke-width: 1.5;" width="151" x="6" y="847"/><ellipse cx="24.15" cy="863" fill="#ADD1B2" rx="11" ry="11" style="stroke: #A80036; stroke-width: 1.0;"/><path d="M27.1188,868.6406 Q26.5406,868.9375 25.9,869.0781 Q25.2594,869.2344 24.5563,869.2344 Q22.0563,869.2344 20.7281,867.5938 Q19.4156,865.9375 19.4156,862.8125 Q19.4156,859.6875 20.7281,858.0313 Q22.0563,856.375 24.5563,856.375 Q25.2594,856.375 25.9,856.5313 Q26.5563,856.6875 27.1188,856.9844 L27.1188,859.7031 Q26.4938,859.125 25.9,858.8594 Q25.3063,858.5781 24.6813,858.5781 Q23.3375,858.5781 22.65,859.6563 Q21.9625,860.7188 21.9625,862.8125 Q21.9625,864.9063 22.65,865.9844 Q23.3375,867.0469 24.6813,867.0469 Q25.3063,867.0469 25.9,866.7813 Q26.4938,866.5 27.1188,865.9219 L27.1188,868.6406 Z "/><text fill="#000000" font-family="sans-serif" font-size="12" font-weight="bold" lengthAdjust="spacingAndGlyphs" textLength="112" x="38.85" y="867.1543">EqualsOperator</text><line style="stroke: #A80036; stroke-width: 1.5;" x1="7" x2="156" y1="879" y2="879"/><line style="stroke: #A80036; stroke-width: 1.5;" x1="7" x2="156" y1="887" y2="887"/><text fill="#000000" font-family="sans-serif" font-size="11" lengthAdjust="spacingAndGlyphs" textLength="139" x="12" y="901.2104">+isMatch(T, T) : boolean</text><!--MD5=[b6df86a35d0b48a7a2ff363d9c2eeacf]
class LessThanOperator--><rect fill="#FEFECE" filter="url(#f17q0utd2c8acw)" height="60.8047" id="LessThanOperator" style="stroke: #A80036; stroke-width: 1.5;" width="165" x="192" y="847"/><ellipse cx="207" cy="863" fill="#ADD1B2" rx="11" ry="11" style="stroke: #A80036; stroke-width: 1.0;"/><path d="M209.9688,868.6406 Q209.3906,868.9375 208.75,869.0781 Q208.1094,869.2344 207.4063,869.2344 Q204.9063,869.2344 203.5781,867.5938 Q202.2656,865.9375 202.2656,862.8125 Q202.2656,859.6875 203.5781,858.0313 Q204.9063,856.375 207.4063,856.375 Q208.1094,856.375 208.75,856.5313 Q209.4063,856.6875 209.9688,856.9844 L209.9688,859.7031 Q209.3438,859.125 208.75,858.8594 Q208.1563,858.5781 207.5313,858.5781 Q206.1875,858.5781 205.5,859.6563 Q204.8125,860.7188 204.8125,862.8125 Q204.8125,864.9063 205.5,865.9844 Q206.1875,867.0469 207.5313,867.0469 Q208.1563,867.0469 208.75,866.7813 Q209.3438,866.5 209.9688,865.9219 L209.9688,868.6406 Z "/><text fill="#000000" font-family="sans-serif" font-size="12" font-weight="bold" lengthAdjust="spacingAndGlyphs" textLength="133" x="221" y="867.1543">LessThanOperator</text><line style="stroke: #A80036; stroke-width: 1.5;" x1="193" x2="356" y1="879" y2="879"/><line style="stroke: #A80036; stroke-width: 1.5;" x1="193" x2="356" y1="887" y2="887"/><text fill="#000000" font-family="sans-serif" font-size="11" lengthAdjust="spacingAndGlyphs" textLength="139" x="198" y="901.2104">+isMatch(T, T) : boolean</text><!--MD5=[eae30bfce20faf0911d72959fbbcfcb6]
class GreaterThanOperator--><rect fill="#FEFECE" filter="url(#f17q0utd2c8acw)" height="60.8047" id="GreaterThanOperator" style="stroke: #A80036; stroke-width: 1.5;" width="187" x="392" y="847"/><ellipse cx="407" cy="863" fill="#ADD1B2" rx="11" ry="11" style="stroke: #A80036; stroke-width: 1.0;"/><path d="M409.9688,868.6406 Q409.3906,868.9375 408.75,869.0781 Q408.1094,869.2344 407.4063,869.2344 Q404.9063,869.2344 403.5781,867.5938 Q402.2656,865.9375 402.2656,862.8125 Q402.2656,859.6875 403.5781,858.0313 Q404.9063,856.375 407.4063,856.375 Q408.1094,856.375 408.75,856.5313 Q409.4063,856.6875 409.9688,856.9844 L409.9688,859.7031 Q409.3438,859.125 408.75,858.8594 Q408.1563,858.5781 407.5313,858.5781 Q406.1875,858.5781 405.5,859.6563 Q404.8125,860.7188 404.8125,862.8125 Q404.8125,864.9063 405.5,865.9844 Q406.1875,867.0469 407.5313,867.0469 Q408.1563,867.0469 408.75,866.7813 Q409.3438,866.5 409.9688,865.9219 L409.9688,868.6406 Z "/><text fill="#000000" font-family="sans-serif" font-size="12" font-weight="bold" lengthAdjust="spacingAndGlyphs" textLength="155" x="421" y="867.1543">GreaterThanOperator</text><line style="stroke: #A80036; stroke-width: 1.5;" x1="393" x2="578" y1="879" y2="879"/><line style="stroke: #A80036; stroke-width: 1.5;" x1="393" x2="578" y1="887" y2="887"/><text fill="#000000" font-family="sans-serif" font-size="11" lengthAdjust="spacingAndGlyphs" textLength="139" x="398" y="901.2104">+isMatch(T, T) : boolean</text><!--MD5=[079b2a745777c5a93d5e7c0d90c028d1]
class RegexMatchOperator--><rect fill="#FEFECE" filter="url(#f17q0utd2c8acw)" height="60.8047" id="RegexMatchOperator" style="stroke: #A80036; stroke-width: 1.5;" width="183" x="614" y="847"/><ellipse cx="629" cy="863" fill="#ADD1B2" rx="11" ry="11" style="stroke: #A80036; stroke-width: 1.0;"/><path d="M631.9688,868.6406 Q631.3906,868.9375 630.75,869.0781 Q630.1094,869.2344 629.4063,869.2344 Q626.9063,869.2344 625.5781,867.5938 Q624.2656,865.9375 624.2656,862.8125 Q624.2656,859.6875 625.5781,858.0313 Q626.9063,856.375 629.4063,856.375 Q630.1094,856.375 630.75,856.5313 Q631.4063,856.6875 631.9688,856.9844 L631.9688,859.7031 Q631.3438,859.125 630.75,858.8594 Q630.1563,858.5781 629.5313,858.5781 Q628.1875,858.5781 627.5,859.6563 Q626.8125,860.7188 626.8125,862.8125 Q626.8125,864.9063 627.5,865.9844 Q628.1875,867.0469 629.5313,867.0469 Q630.1563,867.0469 630.75,866.7813 Q631.3438,866.5 631.9688,865.9219 L631.9688,868.6406 Z "/><text fill="#000000" font-family="sans-serif" font-size="12" font-weight="bold" lengthAdjust="spacingAndGlyphs" textLength="151" x="643" y="867.1543">RegexMatchOperator</text><line style="stroke: #A80036; stroke-width: 1.5;" x1="615" x2="796" y1="879" y2="879"/><line style="stroke: #A80036; stroke-width: 1.5;" x1="615" x2="796" y1="887" y2="887"/><text fill="#000000" font-family="sans-serif" font-size="11" lengthAdjust="spacingAndGlyphs" textLength="139" x="620" y="901.2104">+isMatch(T, T) : boolean</text><!--MD5=[76d2d21c919ce3872ee48a25338078aa]
class FileSearchCriteria--><rect fill="#FEFECE" filter="url(#f17q0utd2c8acw)" height="73.6094" id="FileSearchCriteria" style="stroke: #A80036; stroke-width: 1.5;" width="159" x="760" y="184"/><ellipse cx="775" cy="200" fill="#ADD1B2" rx="11" ry="11" style="stroke: #A80036; stroke-width: 1.0;"/><path d="M777.9688,205.6406 Q777.3906,205.9375 776.75,206.0781 Q776.1094,206.2344 775.4063,206.2344 Q772.9063,206.2344 771.5781,204.5938 Q770.2656,202.9375 770.2656,199.8125 Q770.2656,196.6875 771.5781,195.0313 Q772.9063,193.375 775.4063,193.375 Q776.1094,193.375 776.75,193.5313 Q777.4063,193.6875 777.9688,193.9844 L777.9688,196.7031 Q777.3438,196.125 776.75,195.8594 Q776.1563,195.5781 775.5313,195.5781 Q774.1875,195.5781 773.5,196.6563 Q772.8125,197.7188 772.8125,199.8125 Q772.8125,201.9063 773.5,202.9844 Q774.1875,204.0469 775.5313,204.0469 Q776.1563,204.0469 776.75,203.7813 Q777.3438,203.5 777.9688,202.9219 L777.9688,205.6406 Z "/><text fill="#000000" font-family="sans-serif" font-size="12" font-weight="bold" lengthAdjust="spacingAndGlyphs" textLength="127" x="789" y="204.1543">FileSearchCriteria</text><line style="stroke: #A80036; stroke-width: 1.5;" x1="761" x2="918" y1="216" y2="216"/><text fill="#000000" font-family="sans-serif" font-size="11" lengthAdjust="spacingAndGlyphs" textLength="122" x="766" y="230.2104">-predicate : Predicate</text><line style="stroke: #A80036; stroke-width: 1.5;" x1="761" x2="918" y1="236.8047" y2="236.8047"/><text fill="#000000" font-family="sans-serif" font-size="11" lengthAdjust="spacingAndGlyphs" textLength="136" x="766" y="251.0151">+isMatch(File) : boolean</text><!--MD5=[f32401b2d19d977fff979aa579412b57]
class FileSearch--><rect fill="#FEFECE" filter="url(#f17q0utd2c8acw)" height="60.8047" id="FileSearch" style="stroke: #A80036; stroke-width: 1.5;" width="265" x="810" y="8"/><ellipse cx="901.25" cy="24" fill="#ADD1B2" rx="11" ry="11" style="stroke: #A80036; stroke-width: 1.0;"/><path d="M904.2188,29.6406 Q903.6406,29.9375 903,30.0781 Q902.3594,30.2344 901.6563,30.2344 Q899.1563,30.2344 897.8281,28.5938 Q896.5156,26.9375 896.5156,23.8125 Q896.5156,20.6875 897.8281,19.0313 Q899.1563,17.375 901.6563,17.375 Q902.3594,17.375 903,17.5313 Q903.6563,17.6875 904.2188,17.9844 L904.2188,20.7031 Q903.5938,20.125 903,19.8594 Q902.4063,19.5781 901.7813,19.5781 Q900.4375,19.5781 899.75,20.6563 Q899.0625,21.7188 899.0625,23.8125 Q899.0625,25.9063 899.75,26.9844 Q900.4375,28.0469 901.7813,28.0469 Q902.4063,28.0469 903,27.7813 Q903.5938,27.5 904.2188,26.9219 L904.2188,29.6406 Z "/><text fill="#000000" font-family="sans-serif" font-size="12" font-weight="bold" lengthAdjust="spacingAndGlyphs" textLength="74" x="921.75" y="28.1543">FileSearch</text><line style="stroke: #A80036; stroke-width: 1.5;" x1="811" x2="1074" y1="40" y2="40"/><line style="stroke: #A80036; stroke-width: 1.5;" x1="811" x2="1074" y1="48" y2="48"/><text fill="#000000" font-family="sans-serif" font-size="11" lengthAdjust="spacingAndGlyphs" textLength="253" x="816" y="62.2104">+search(File, FileSearchCriteria) : List&lt;File&gt;</text><!--MD5=[e5d8de9dc007b1cf61b762ea7198b38f]
reverse link Predicate to SimplePredicate--><path d="M745.46,412.63 C679.88,420.5 591.26,435.61 517.5,464 C486.82,475.81 455.49,493.78 429.1,510.97 " fill="none" id="Predicate&lt;-SimplePredicate" style="stroke: #A80036; stroke-width: 1.0; stroke-dasharray: 7.0,7.0;"/><polygon fill="none" points="744.81,405.66,765.47,410.37,746.38,419.57,744.81,405.66" style="stroke: #A80036; stroke-width: 1.0;"/><!--MD5=[49d9a721627a963aa648343e42e882d7]
reverse link Predicate to CompositePredicate--><path d="M805.64,450.13 C784.69,478.38 758.66,513.46 741.82,536.16 " fill="none" id="Predicate&lt;-CompositePredicate" style="stroke: #A80036; stroke-width: 1.0; stroke-dasharray: 7.0,7.0;"/><polygon fill="none" points="800.06,445.91,817.6,434.02,811.3,454.25,800.06,445.91" style="stroke: #A80036; stroke-width: 1.0;"/><!--MD5=[30486fb3f341ad9f5536b813ac693789]
reverse link CompositePredicate to AndPredicate--><path d="M704.61,602.69 C690.45,632.03 671.59,671.1 657.99,699.26 " fill="none" id="CompositePredicate&lt;-AndPredicate" style="stroke: #A80036; stroke-width: 1.0; stroke-dasharray: 7.0,7.0;"/><polygon fill="none" points="698.35,599.57,713.35,584.61,710.95,605.66,698.35,599.57" style="stroke: #A80036; stroke-width: 1.0;"/><!--MD5=[f54fb8d36a9a1fa501064e02f143e1ae]
reverse link CompositePredicate to OrPredicate--><path d="M757.41,600.19 C782.58,629.78 817.04,670.29 841.68,699.26 " fill="none" id="CompositePredicate&lt;-OrPredicate" style="stroke: #A80036; stroke-width: 1.0; stroke-dasharray: 7.0,7.0;"/><polygon fill="none" points="751.78,604.38,744.15,584.61,762.44,595.31,751.78,604.38" style="stroke: #A80036; stroke-width: 1.0;"/><!--MD5=[36855042b83f26740c5acb54dd057697]
reverse link Predicate to NotPredicate--><path d="M895.73,446 C928.36,470.09 969.08,500.14 1000.41,523.27 " fill="none" id="Predicate&lt;-NotPredicate" style="stroke: #A80036; stroke-width: 1.0; stroke-dasharray: 7.0,7.0;"/><polygon fill="none" points="891.43,451.53,879.49,434.02,899.74,440.26,891.43,451.53" style="stroke: #A80036; stroke-width: 1.0;"/><!--MD5=[8b422620e5186b0c66795ffed7e4b63e]
reverse link NotPredicate to Predicate--><path d="M1011.83,513.69 C996.44,496.75 977.74,478.23 958.5,464 C943.36,452.81 925.8,442.71 908.9,434.15 " fill="none" id="NotPredicate&lt;-Predicate" style="stroke: #A80036; stroke-width: 1.0;"/><polygon fill="#FFFFFF" points="1020.48,523.44,1019.4861,516.2977,1012.5109,514.4682,1013.5048,521.6105,1020.48,523.44" style="stroke: #A80036; stroke-width: 1.0;"/><text fill="#000000" font-family="sans-serif" font-size="13" lengthAdjust="spacingAndGlyphs" textLength="53" x="978.5" y="477.0669">operand</text><!--MD5=[893d417a1e68e08d7ac735125b2ef087]
reverse link AndPredicate to Predicate--><path d="M600.53,689.04 C564.5,641.23 522.54,566.13 560.5,511 C606.23,444.6 699.34,419.57 765.41,410.15 " fill="none" id="AndPredicate&lt;-Predicate" style="stroke: #A80036; stroke-width: 1.0;"/><polygon fill="#FFFFFF" points="608.57,699.41,608.0514,692.2176,601.2128,689.93,601.7314,697.1224,608.57,699.41" style="stroke: #A80036; stroke-width: 1.0;"/><text fill="#000000" font-family="sans-serif" font-size="13" lengthAdjust="spacingAndGlyphs" textLength="60" x="561.5" y="565.0669">operands</text><text fill="#000000" font-family="sans-serif" font-size="13" lengthAdjust="spacingAndGlyphs" textLength="23" x="734.5197" y="407.1537">1..*</text><!--MD5=[a0ef5fb34b27b53e23a9b3104f28cb81]
reverse link OrPredicate to Predicate--><path d="M867.58,686.15 C860.63,616.4 848.14,491.14 842.46,434.17 " fill="none" id="OrPredicate&lt;-Predicate" style="stroke: #A80036; stroke-width: 1.0;"/><polygon fill="#FFFFFF" points="868.89,699.33,872.2766,692.9636,867.7025,687.3889,864.3159,693.7553,868.89,699.33" style="stroke: #A80036; stroke-width: 1.0;"/><text fill="#000000" font-family="sans-serif" font-size="13" lengthAdjust="spacingAndGlyphs" textLength="60" x="861.5" y="565.0669">operands</text><text fill="#000000" font-family="sans-serif" font-size="13" lengthAdjust="spacingAndGlyphs" textLength="23" x="817.7787" y="453.7839">1..*</text><!--MD5=[d71e860033b8f5207a497545120402db]
reverse link SimplePredicate to FileAttribute--><path d="M289.8,618.7 C282.05,625.64 274.46,632.82 267.5,640 C253.63,654.31 239.87,671.15 228.04,686.67 " fill="none" id="SimplePredicate&lt;-FileAttribute" style="stroke: #A80036; stroke-width: 1.0;"/><polygon fill="#FFFFFF" points="299.68,610.07,292.5302,611.0085,290.6466,617.9693,297.7964,617.0308,299.68,610.07" style="stroke: #A80036; stroke-width: 1.0;"/><text fill="#000000" font-family="sans-serif" font-size="13" lengthAdjust="spacingAndGlyphs" textLength="94" x="268.5" y="653.0669">attributeName</text><!--MD5=[7638a4bcbcb76079d29a13f8f02c6d98]
reverse link SimplePredicate to ComparisonOperator--><path d="M368.91,623.44 C371.81,651.53 375.11,683.43 377.45,705.99 " fill="none" id="SimplePredicate&lt;-ComparisonOperator" style="stroke: #A80036; stroke-width: 1.0;"/><polygon fill="#FFFFFF" points="367.56,610.43,364.2005,616.8108,368.7984,622.3659,372.1578,615.9852,367.56,610.43" style="stroke: #A80036; stroke-width: 1.0;"/><text fill="#000000" font-family="sans-serif" font-size="13" lengthAdjust="spacingAndGlyphs" textLength="55" x="373.5" y="653.0669">operator</text><!--MD5=[350111f39537c4ffe48e8221babb9178]
reverse link ComparisonOperator to EqualsOperator--><path d="M298.51,775.62 C250.17,798.09 189.92,826.1 145.18,846.9 " fill="none" id="ComparisonOperator&lt;-EqualsOperator" style="stroke: #A80036; stroke-width: 1.0; stroke-dasharray: 7.0,7.0;"/><polygon fill="none" points="295.64,769.23,316.72,767.15,301.54,781.93,295.64,769.23" style="stroke: #A80036; stroke-width: 1.0;"/><!--MD5=[9452fc04c7f339680dbcde24cfbb4d61]
reverse link ComparisonOperator to LessThanOperator--><path d="M345.41,783.51 C329.54,804.33 311.24,828.33 297.2,846.73 " fill="none" id="ComparisonOperator&lt;-LessThanOperator" style="stroke: #A80036; stroke-width: 1.0; stroke-dasharray: 7.0,7.0;"/><polygon fill="none" points="340.07,778.98,357.76,767.32,351.2,787.47,340.07,778.98" style="stroke: #A80036; stroke-width: 1.0;"/><!--MD5=[254031bf1f4b23fdc3226678ab66b566]
reverse link ComparisonOperator to GreaterThanOperator--><path d="M415.26,783.51 C430.98,804.33 449.11,828.33 463.01,846.73 " fill="none" id="ComparisonOperator&lt;-GreaterThanOperator" style="stroke: #A80036; stroke-width: 1.0; stroke-dasharray: 7.0,7.0;"/><polygon fill="none" points="409.49,787.5,403.03,767.32,420.67,779.06,409.49,787.5" style="stroke: #A80036; stroke-width: 1.0;"/><!--MD5=[66fb48a358a96898a0f58cc7f9e835ee]
reverse link ComparisonOperator to RegexMatchOperator--><path d="M468.24,775.02 C521,797.59 587.22,825.91 636.28,846.9 " fill="none" id="ComparisonOperator&lt;-RegexMatchOperator" style="stroke: #A80036; stroke-width: 1.0; stroke-dasharray: 7.0,7.0;"/><polygon fill="none" points="465.46,781.45,449.82,767.15,470.96,768.58,465.46,781.45" style="stroke: #A80036; stroke-width: 1.0;"/><!--MD5=[508e5fcb6ba11b494899a507f67746e1]
reverse link FileSearchCriteria to Predicate--><path d="M839.5,271.39 C839.5,303.84 839.5,345.24 839.5,372.74 " fill="none" id="FileSearchCriteria&lt;-Predicate" style="stroke: #A80036; stroke-width: 1.0;"/><polygon fill="#FFFFFF" points="839.5,258.09,835.5,264.09,839.5,270.09,843.5,264.09,839.5,258.09" style="stroke: #A80036; stroke-width: 1.0;"/><text fill="#000000" font-family="sans-serif" font-size="13" lengthAdjust="spacingAndGlyphs" textLength="60" x="840.5" y="339.0669">predicate</text><!--MD5=[1b6ad8abe48edbeaa6d8fcb45455c9af]
link FileSearch to FileSearchCriteria--><path d="M925.49,69.31 C908.32,99.4 881.68,146.08 862.61,179.51 " fill="none" id="FileSearch-&gt;FileSearchCriteria" style="stroke: #A80036; stroke-width: 1.0; stroke-dasharray: 7.0,7.0;"/><polygon fill="#A80036" points="860.08,183.93,868.0079,178.0863,862.553,179.5844,861.0549,174.1295,860.08,183.93" style="stroke: #A80036; stroke-width: 1.0;"/><text fill="#000000" font-family="sans-serif" font-size="13" lengthAdjust="spacingAndGlyphs" textLength="30" x="907.5" y="112.0669">uses</text><!--MD5=[4f861326cb2f737aca7243affaf46342]
link FileSearch to File--><path d="M959.51,69.31 C970.74,88.99 986.03,115.79 1000.6,141.32 " fill="none" id="FileSearch-&gt;File" style="stroke: #A80036; stroke-width: 1.0; stroke-dasharray: 7.0,7.0;"/><polygon fill="#A80036" points="1003.12,145.74,1002.1451,135.9395,1000.647,141.3944,995.1921,139.8963,1003.12,145.74" style="stroke: #A80036; stroke-width: 1.0;"/><text fill="#000000" font-family="sans-serif" font-size="13" lengthAdjust="spacingAndGlyphs" textLength="60" x="985.5" y="112.0669">traverses</text></g></svg>